<svg width="40" height="28" viewBox="0 0 40 28" fill="none" xmlns="http://www.w3.org/2000/svg">
<path d="M24.75 1H35C37.2091 1 39 2.79086 39 5V10.3889V17.6111V23C39 25.2091 37.2091 27 35 27H24.75H15.25H5C2.79086 27 1 25.2091 1 23V17.6111V10.3889V5C1 2.79086 2.79086 1 5 1H15.25H24.75Z" fill="#F6C859"/>
<path d="M15.25 1L20 5.69444M15.25 1H24.75M15.25 1H5C2.79086 1 1 2.79086 1 5V10.3889M20 5.69444L24.75 1M20 5.69444V10.3889H16.3462M24.75 1H35C37.2091 1 39 2.79086 39 5V10.3889M15.25 27H5C2.79086 27 1 25.2091 1 23V17.6111M15.25 27L20 22.3056M15.25 27H24.75M20 22.3056L24.75 27M20 22.3056V17.6111M24.75 27H35C37.2091 27 39 25.2091 39 23V17.6111M20 17.6111H23.6538M20 17.6111H16.3462M1 17.6111V10.3889M1 17.6111H16.3462M39 17.6111H23.6538M39 17.6111V10.3889M1 10.3889H16.3462M16.3462 10.3889V17.6111M23.6538 17.6111V10.3889H39" stroke="#7D662D"/>
</svg>
