<svg id="visual" viewBox="0 0 900 600" width="900" height="600" xmlns="http://www.w3.org/2000/svg" xmlns:xlink="http://www.w3.org/1999/xlink" version="1.1"><rect x="0" y="0" width="900" height="600" fill="#fe9a8b"></rect><defs><linearGradient id="grad1_0" x1="33.3%" y1="0%" x2="100%" y2="100%"><stop offset="20%" stop-color="#f9748f" stop-opacity="1"></stop><stop offset="80%" stop-color="#f9748f" stop-opacity="1"></stop></linearGradient></defs><defs><linearGradient id="grad1_1" x1="33.3%" y1="0%" x2="100%" y2="100%"><stop offset="20%" stop-color="#f9748f" stop-opacity="1"></stop><stop offset="80%" stop-color="#fb7c8d" stop-opacity="1"></stop></linearGradient></defs><defs><linearGradient id="grad1_2" x1="33.3%" y1="0%" x2="100%" y2="100%"><stop offset="20%" stop-color="#fc838b" stop-opacity="1"></stop><stop offset="80%" stop-color="#fb7c8d" stop-opacity="1"></stop></linearGradient></defs><defs><linearGradient id="grad1_3" x1="33.3%" y1="0%" x2="100%" y2="100%"><stop offset="20%" stop-color="#fc838b" stop-opacity="1"></stop><stop offset="80%" stop-color="#fd8b8a" stop-opacity="1"></stop></linearGradient></defs><defs><linearGradient id="grad1_4" x1="33.3%" y1="0%" x2="100%" y2="100%"><stop offset="20%" stop-color="#fe928a" stop-opacity="1"></stop><stop offset="80%" stop-color="#fd8b8a" stop-opacity="1"></stop></linearGradient></defs><defs><linearGradient id="grad1_5" x1="33.3%" y1="0%" x2="100%" y2="100%"><stop offset="20%" stop-color="#fe928a" stop-opacity="1"></stop><stop offset="80%" stop-color="#fe9a8b" stop-opacity="1"></stop></linearGradient></defs><defs><linearGradient id="grad2_0" x1="0%" y1="0%" x2="66.7%" y2="100%"><stop offset="20%" stop-color="#f9748f" stop-opacity="1"></stop><stop offset="80%" stop-color="#f9748f" stop-opacity="1"></stop></linearGradient></defs><defs><linearGradient id="grad2_1" x1="0%" y1="0%" x2="66.7%" y2="100%"><stop offset="20%" stop-color="#fb7c8d" stop-opacity="1"></stop><stop offset="80%" stop-color="#f9748f" stop-opacity="1"></stop></linearGradient></defs><defs><linearGradient id="grad2_2" x1="0%" y1="0%" x2="66.7%" y2="100%"><stop offset="20%" stop-color="#fb7c8d" stop-opacity="1"></stop><stop offset="80%" stop-color="#fc838b" stop-opacity="1"></stop></linearGradient></defs><defs><linearGradient id="grad2_3" x1="0%" y1="0%" x2="66.7%" y2="100%"><stop offset="20%" stop-color="#fd8b8a" stop-opacity="1"></stop><stop offset="80%" stop-color="#fc838b" stop-opacity="1"></stop></linearGradient></defs><defs><linearGradient id="grad2_4" x1="0%" y1="0%" x2="66.7%" y2="100%"><stop offset="20%" stop-color="#fd8b8a" stop-opacity="1"></stop><stop offset="80%" stop-color="#fe928a" stop-opacity="1"></stop></linearGradient></defs><defs><linearGradient id="grad2_5" x1="0%" y1="0%" x2="66.7%" y2="100%"><stop offset="20%" stop-color="#fe9a8b" stop-opacity="1"></stop><stop offset="80%" stop-color="#fe928a" stop-opacity="1"></stop></linearGradient></defs><g transform="translate(900, 0)"><path d="M0 540.8C-33.7 509.9 -67.4 479 -108.6 475.8C-149.7 472.5 -198.3 497 -234.7 487.3C-271 477.6 -295.2 433.7 -316.7 397.2C-338.3 360.7 -357.3 331.5 -380.8 303.6C-404.2 275.8 -432.1 249.3 -453.2 218.2C-474.3 187.2 -488.6 151.7 -502.1 114.6C-515.6 77.5 -528.2 38.7 -540.8 0L0 0Z" fill="#fe968b"></path><path d="M0 450.7C-28.1 424.9 -56.2 399.2 -90.5 396.5C-124.8 393.8 -165.3 414.2 -195.5 406.1C-225.8 398 -246 361.4 -263.9 331C-281.9 300.5 -297.8 276.2 -317.3 253C-336.8 229.8 -360.1 207.7 -377.7 181.9C-395.2 156 -407.2 126.4 -418.4 95.5C-429.6 64.6 -440.2 32.3 -450.7 0L0 0Z" fill="#fe8f8a"></path><path d="M0 360.6C-22.5 339.9 -45 319.3 -72.4 317.2C-99.8 315 -132.2 331.3 -156.4 324.8C-180.7 318.4 -196.8 289.1 -211.2 264.8C-225.5 240.4 -238.2 221 -253.8 202.4C-269.5 183.9 -288.1 166.2 -302.1 145.5C-316.2 124.8 -325.7 101.1 -334.7 76.4C-343.7 51.7 -352.1 25.8 -360.6 0L0 0Z" fill="#fd878b"></path><path d="M0 270.4C-16.9 255 -33.7 239.5 -54.3 237.9C-74.9 236.3 -99.2 248.5 -117.3 243.6C-135.5 238.8 -147.6 216.8 -158.4 198.6C-169.2 180.3 -178.7 165.7 -190.4 151.8C-202.1 137.9 -216 124.6 -226.6 109.1C-237.1 93.6 -244.3 75.9 -251 57.3C-257.8 38.7 -264.1 19.4 -270.4 0L0 0Z" fill="#fc7f8c"></path><path d="M0 180.3C-11.2 170 -22.5 159.7 -36.2 158.6C-49.9 157.5 -66.1 165.7 -78.2 162.4C-90.3 159.2 -98.4 144.6 -105.6 132.4C-112.8 120.2 -119.1 110.5 -126.9 101.2C-134.7 91.9 -144 83.1 -151.1 72.7C-158.1 62.4 -162.9 50.6 -167.4 38.2C-171.9 25.8 -176.1 12.9 -180.3 0L0 0Z" fill="#fa788e"></path><path d="M0 90.1C-5.6 85 -11.2 79.8 -18.1 79.3C-25 78.8 -33.1 82.8 -39.1 81.2C-45.2 79.6 -49.2 72.3 -52.8 66.2C-56.4 60.1 -59.6 55.2 -63.5 50.6C-67.4 46 -72 41.5 -75.5 36.4C-79 31.2 -81.4 25.3 -83.7 19.1C-85.9 12.9 -88 6.5 -90.1 0L0 0Z" fill="#f9748f"></path></g><g transform="translate(0, 600)"><path d="M0 -540.8C41.9 -541.6 83.9 -542.4 120.3 -527.3C156.8 -512.2 187.8 -481.2 220.8 -458.6C253.9 -436 289 -421.7 318.6 -399.5C348.2 -377.3 372.2 -347.1 398 -317.4C423.7 -287.6 451.1 -258.3 464.9 -223.9C478.7 -189.5 479 -149.9 489.4 -111.7C499.8 -73.5 520.3 -36.8 540.8 0L0 0Z" fill="#fe968b"></path><path d="M0 -450.7C35 -451.3 69.9 -452 100.3 -439.4C130.7 -426.8 156.5 -401 184 -382.2C211.6 -363.3 240.8 -351.4 265.5 -332.9C290.2 -314.4 310.2 -289.3 331.6 -264.5C353.1 -239.7 375.9 -215.3 387.4 -186.6C398.9 -157.9 399.2 -124.9 407.8 -93.1C416.5 -61.3 433.6 -30.6 450.7 0L0 0Z" fill="#fe8f8a"></path><path d="M0 -360.6C28 -361.1 55.9 -361.6 80.2 -351.5C104.5 -341.4 125.2 -320.8 147.2 -305.7C169.3 -290.7 192.7 -281.2 212.4 -266.3C232.1 -251.5 248.2 -231.4 265.3 -211.6C282.4 -191.7 300.7 -172.2 309.9 -149.3C319.2 -126.3 319.3 -99.9 326.3 -74.5C333.2 -49 346.9 -24.5 360.6 0L0 0Z" fill="#fd878b"></path><path d="M0 -270.4C21 -270.8 41.9 -271.2 60.2 -263.6C78.4 -256.1 93.9 -240.6 110.4 -229.3C126.9 -218 144.5 -210.9 159.3 -199.8C174.1 -188.6 186.1 -173.6 199 -158.7C211.8 -143.8 225.5 -129.2 232.4 -111.9C239.4 -94.7 239.5 -74.9 244.7 -55.9C249.9 -36.8 260.2 -18.4 270.4 0L0 0Z" fill="#fc7f8c"></path><path d="M0 -180.3C14 -180.5 28 -180.8 40.1 -175.8C52.3 -170.7 62.6 -160.4 73.6 -152.9C84.6 -145.3 96.3 -140.6 106.2 -133.2C116.1 -125.8 124.1 -115.7 132.7 -105.8C141.2 -95.9 150.4 -86.1 155 -74.6C159.6 -63.2 159.7 -50 163.1 -37.2C166.6 -24.5 173.4 -12.3 180.3 0L0 0Z" fill="#fa788e"></path><path d="M0 -90.1C7 -90.3 14 -90.4 20.1 -87.9C26.1 -85.4 31.3 -80.2 36.8 -76.4C42.3 -72.7 48.2 -70.3 53.1 -66.6C58 -62.9 62 -57.9 66.3 -52.9C70.6 -47.9 75.2 -43.1 77.5 -37.3C79.8 -31.6 79.8 -25 81.6 -18.6C83.3 -12.3 86.7 -6.1 90.1 0L0 0Z" fill="#f9748f"></path></g></svg>