<svg width="40" height="40" viewBox="0 0 40 40" fill="none" xmlns="http://www.w3.org/2000/svg">
<path fill-rule="evenodd" clip-rule="evenodd" d="M20.2982 27.9991C17.8684 25.9509 16.3276 22.9033 16.3276 19.5C16.3276 16.0967 17.8684 13.0491 20.2982 11.0009C18.3248 9.33749 15.765 8.33333 12.9678 8.33333C6.72632 8.33333 1.66663 13.3328 1.66663 19.5C1.66663 25.6672 6.72632 30.6667 12.9678 30.6667C15.765 30.6667 18.3248 29.6625 20.2982 27.9991Z" fill="white"/>
<path opacity="0.7" fill-rule="evenodd" clip-rule="evenodd" d="M20.2984 27.9991C22.7282 25.9509 24.269 22.9033 24.269 19.5C24.269 16.0968 22.7282 13.0491 20.2984 11.001C17.8685 13.0491 16.3277 16.0968 16.3277 19.5C16.3277 22.9033 17.8685 25.9509 20.2984 27.9991Z" fill="white"/>
<path opacity="0.3" fill-rule="evenodd" clip-rule="evenodd" d="M20.2982 27.9991C22.7281 25.9509 24.2689 22.9033 24.2689 19.5C24.2689 16.0967 22.7281 13.0491 20.2982 11.0009C22.2717 9.33749 24.8315 8.33333 27.6287 8.33333C33.8702 8.33333 38.9299 13.3328 38.9299 19.5C38.9299 25.6672 33.8702 30.6667 27.6287 30.6667C24.8315 30.6667 22.2717 29.6625 20.2982 27.9991Z" fill="white"/>
</svg>
